<?xml version="1.0" encoding="utf-8"?>
<!-- Generator: Adobe Illustrator 18.0.0, SVG Export Plug-In . SVG Version: 6.00 Build 0)  -->
<!DOCTYPE svg PUBLIC "-//W3C//DTD SVG 1.1//EN" "http://www.w3.org/Graphics/SVG/1.1/DTD/svg11.dtd">
<svg version="1.1" id="Layer_1" xmlns="http://www.w3.org/2000/svg" xmlns:xlink="http://www.w3.org/1999/xlink" x="0px" y="0px"
	 viewBox="0 0 960 323.8" enable-background="new 0 0 960 323.8" xml:space="preserve">
<radialGradient id="SVGID_1_" cx="478.6971" cy="138.4238" r="393.7796" gradientUnits="userSpaceOnUse">
	<stop  offset="0.1141" style="stop-color:#176284"/>
	<stop  offset="0.9384" style="stop-color:#000000"/>
</radialGradient>
<rect fill="url(#SVGID_1_)" width="960" height="323.8"/>
<g>
	<g>
		<path fill="#1A1A1A" d="M567.9,135c0,48.5-39.3,87.9-87.9,87.9c-48.5,0-87.9-39.3-87.9-87.9s39.3-87.9,87.9-87.9
			C528.5,47.1,567.9,86.4,567.9,135z"/>
	</g>
	<g>
		<path fill="#FFFFFF" d="M565.1,135c0,47-38.1,85.1-85.1,85.1c-47,0-85.1-38.1-85.1-85.1c0-47,38.1-85.1,85.1-85.1
			C527,49.9,565.1,88,565.1,135z"/>
	</g>
	<g>
		<g>
			
				<rect x="403.9" y="133.4" transform="matrix(0.7071 0.7071 -0.7071 0.7071 235.9166 -299.9204)" fill="#1A1A1A" width="152.3" height="2.9"/>
		</g>
		<g>
			
				<rect x="478.5" y="58.7" transform="matrix(0.7071 0.7071 -0.7071 0.7071 235.9393 -299.9332)" fill="#1A1A1A" width="3.1" height="152.3"/>
		</g>
	</g>
	<g>
		<g>
			<path fill="#1A1A1A" d="M412.6,152.2v-2.3l1.8-0.4c0.6-0.1,0.7-0.6,0.7-0.9v-26.8c0-0.4-0.1-0.8-0.7-0.9l-1.8-0.4v-2.3h24.8v3
				h-18.7v12.2h18.3v2.9h-18.3v13h18.7v3L412.6,152.2L412.6,152.2z"/>
		</g>
	</g>
	<g>
		<g>
			<path fill="#1A1A1A" d="M489.1,94v-2.3l1.5-0.3c0.5-0.1,0.8-0.2,0.8-0.7c0-0.2-0.1-0.4-0.2-0.8l-2.6-6.2h-18.5l-2.6,6.2
				c-0.2,0.4-0.2,0.6-0.2,0.8c0,0.5,0.4,0.6,0.8,0.7l1.5,0.3V94H461v-2.3l1.8-0.5c0.8-0.2,1-0.6,1.3-1.2l11.2-26.1
				c0.3-0.6,0.1-1.1-0.6-1.2l-1.9-0.4V60h9.9l12,30c0.3,0.7,0.6,1,1.3,1.2l1.8,0.5V94H489.1z M480.9,63.7c-0.3-0.8-0.5-1.2-1.2-1.2
				c-0.8,0-0.9,0.5-1.2,1.2L471.3,81h16.3L480.9,63.7z"/>
		</g>
	</g>
	<g>
		<g>
			<path fill="#1A1A1A" d="M535.3,121.2v27.4c0,0.4,0.1,0.8,0.7,0.9l1.8,0.4v2.3h-8.6v-2.3l1.8-0.4c0.6-0.1,0.7-0.6,0.7-0.9v-27.4
				h-12.7v-3H548v3L535.3,121.2L535.3,121.2z"/>
		</g>
	</g>
	<g>
		<g>
			<g>
				<g>
					<g>
						<path fill="#ED1C24" d="M479.1,172c-0.2,0.5-0.8,0.7-1.4,0.5c-5.5-1.8-11.5-1.8-17,0c-0.6,0.2-1.2,0-1.4-0.5l0,0
							c-0.2-0.5,0.2-1,0.8-1.2c5.9-2,12.3-2,18.2,0C479,171,479.3,171.5,479.1,172L479.1,172z"/>
					</g>
					<g>
						<path fill="#ED1C24" d="M478.2,173c-0.2,0-0.4,0-0.6-0.1c-2.7-0.9-5.5-1.4-8.4-1.4c-2.8,0-5.7,0.5-8.4,1.4
							c-0.2,0.1-0.4,0.1-0.6,0.1c-0.6,0-1.2-0.3-1.4-0.9c-0.1-0.3-0.1-0.7,0.1-1c0.2-0.4,0.6-0.7,1-0.9c3-1,6.1-1.5,9.2-1.5
							c3.1,0,6.3,0.5,9.2,1.5c0.5,0.2,0.9,0.5,1,0.9c0.2,0.3,0.2,0.7,0,1C479.4,172.7,478.8,173,478.2,173z M469.3,170.6
							c3,0,5.9,0.5,8.7,1.4c0.1,0,0.2,0,0.3,0c0.2,0,0.4-0.1,0.5-0.2c0-0.1,0-0.2,0-0.2c-0.1-0.2-0.3-0.3-0.5-0.4
							c-2.9-1-5.9-1.4-8.9-1.4c-3,0-6,0.5-8.9,1.4c-0.2,0.1-0.4,0.2-0.5,0.4c0,0.1-0.1,0.1,0,0.2c0.1,0.1,0.2,0.2,0.5,0.2
							c0.1,0,0.2,0,0.3,0C463.4,171.1,466.3,170.6,469.3,170.6z"/>
					</g>
				</g>
				<g>
					<g>
						<path fill="#ED1C24" d="M499.5,171.4c-0.2-0.5-0.8-0.6-1.5-0.4c-6.5,2.2-12.7,2.2-19.2,0c-0.7-0.2-1.4-0.1-1.5,0.4l0,0
							c-0.2,0.5,0.3,1.1,1,1.4c6.8,2.2,13.4,2.2,20.2,0C499.2,172.5,499.7,171.8,499.5,171.4L499.5,171.4z"/>
					</g>
					<g>
						<path fill="#ED1C24" d="M488.4,174.9C488.4,174.9,488.4,174.9,488.4,174.9c-3.4,0-6.8-0.6-10.2-1.7c-1-0.3-1.6-1.2-1.3-2
							c0.2-0.5,0.7-0.9,1.4-0.9c0.3,0,0.5,0,0.8,0.1c3.2,1.1,6.3,1.6,9.5,1.6c0,0,0,0,0,0c3.1,0,6.2-0.5,9.5-1.6
							c0.3-0.1,0.5-0.1,0.8-0.1c0.7,0,1.2,0.3,1.4,0.9c0.2,0.7-0.4,1.6-1.3,2C495.2,174.3,491.8,174.9,488.4,174.9z M478.2,171.3
							c-0.2,0-0.4,0.1-0.4,0.2c-0.1,0.2,0.2,0.6,0.7,0.8c3.3,1.1,6.7,1.6,9.9,1.6c3.3,0,6.6-0.5,10-1.6c0.5-0.2,0.8-0.6,0.7-0.8
							c0-0.1-0.3-0.2-0.4-0.2c-0.1,0-0.3,0-0.5,0.1c-3.3,1.1-6.5,1.6-9.8,1.6c0,0,0,0,0,0c-3.2,0-6.4-0.5-9.8-1.6
							C478.5,171.4,478.3,171.3,478.2,171.3z"/>
					</g>
				</g>
			</g>
			<g>
				<rect x="470.6" y="170.8" fill="#ED1C24" width="1.6" height="34.8"/>
				<path fill="#ED1C24" d="M472.7,206.1h-2.6v-35.8h2.6V206.1z M471.1,205.2h0.7v-33.9h-0.7V205.2z"/>
			</g>
			<g>
				<rect x="486.1" y="173.9" fill="#ED1C24" width="1.8" height="31.8"/>
				<path fill="#ED1C24" d="M488.4,206.1h-2.8v-32.7h2.8V206.1z M486.5,205.2h0.9v-30.8h-0.9V205.2z"/>
			</g>
		</g>
		<g>
			<polygon fill="#FFFFFF" points="462.8,176.7 459.3,178.1 456.5,171 460.1,169.6 			"/>
		</g>
		<g>
			
				<rect x="498.4" y="167.7" transform="matrix(-0.9317 0.3633 -0.3633 -0.9317 1028.7377 149.5077)" fill="#FFFFFF" width="3.8" height="7.5"/>
		</g>
	</g>
	<g>
		<g>
			<polygon fill="#FFFFFF" points="441.7,88.8 440.2,90.9 424.9,79.6 426.4,77.6 			"/>
			<path fill="#FFFFFF" d="M440.2,91L440.2,91l-15.4-11.3l1.6-2.2l0.1,0.1l15.4,11.3L440.2,91z M425,79.6l15.1,11.1l1.4-1.9
				l-15.1-11.1L425,79.6z"/>
		</g>
		<g>
			<polygon fill="#FFFFFF" points="433.8,96.7 435.8,95.2 424.6,80 422.5,81.5 			"/>
			<path fill="#FFFFFF" d="M433.7,96.9l-11.3-15.4l2.2-1.6l11.3,15.4L433.7,96.9z M422.7,81.5l11.1,15.1l1.9-1.4l-11.1-15.1
				L422.7,81.5z"/>
		</g>
	</g>
	<g>
		<polygon fill="#FFFFFF" points="532.2,182.8 528.2,186.9 526.9,185.6 530.9,181.6 		"/>
		<path fill="#FFFFFF" d="M528.2,187l-1.4-1.4l4.2-4.2l1.4,1.4L528.2,187z M527,185.6l1.2,1.2l3.9-3.9l-1.2-1.2L527,185.6z"/>
	</g>
	<g>
		<g>
			<g>
				<g>
					<g>
						<path fill="#58B7DD" d="M534.1,83.5l-1.2-1.2L534.1,83.5z"/>
					</g>
					<g>
						
							<rect x="532.6" y="82.1" transform="matrix(0.7067 0.7075 -0.7075 0.7067 215.1384 -353.1114)" fill="#FFFFFF" width="1.7" height="1.5"/>
					</g>
				</g>
				<g>
					<g>
						<path fill="#58B7DD" d="M527,90.6l-1.2-1.2L527,90.6z"/>
					</g>
					<g>
						
							<rect x="525.5" y="89.2" transform="matrix(0.7066 0.7076 -0.7076 0.7066 218.081 -346.0921)" fill="#FFFFFF" width="1.7" height="1.5"/>
					</g>
				</g>
				<g>
					<g>
						<path fill="#58B7DD" d="M520,97.6l-1.2-1.2L520,97.6z"/>
					</g>
					<g>
						
							<rect x="518.5" y="96.2" transform="matrix(0.7066 0.7076 -0.7076 0.7066 220.9902 -339.048)" fill="#FFFFFF" width="1.7" height="1.5"/>
					</g>
				</g>
				<g>
					<g>
						<path fill="#58B7DD" d="M512.9,104.6l-1.2-1.2L512.9,104.6z"/>
					</g>
					<g>
						
							<rect x="511.5" y="103.2" transform="matrix(0.7066 0.7076 -0.7076 0.7066 223.8995 -332.0038)" fill="#FFFFFF" width="1.7" height="1.5"/>
					</g>
				</g>
				<g>
					<g>
						<path fill="#58B7DD" d="M505.9,111.6l-1.2-1.2L505.9,111.6z"/>
					</g>
					<g>
						
							<rect x="504.4" y="110.3" transform="matrix(0.7066 0.7076 -0.7076 0.7066 226.8423 -324.981)" fill="#FFFFFF" width="1.7" height="1.5"/>
					</g>
				</g>
				<g>
					<g>
						<path fill="#58B7DD" d="M498.9,118.7l-1.2-1.2L498.9,118.7z"/>
					</g>
					<g>
						
							<rect x="497.4" y="117.3" transform="matrix(0.7066 0.7076 -0.7076 0.7066 229.7181 -317.9155)" fill="#FFFFFF" width="1.7" height="1.5"/>
					</g>
				</g>
				<g>
					<g>
						<path fill="#58B7DD" d="M491.8,125.7l-1.2-1.2L491.8,125.7z"/>
					</g>
					<g>
						
							<rect x="490.3" y="124.3" transform="matrix(0.7066 0.7076 -0.7076 0.7066 232.6273 -310.8712)" fill="#FFFFFF" width="1.7" height="1.5"/>
					</g>
				</g>
				<g>
					<g>
						<path fill="#58B7DD" d="M484.8,132.7l-1.2-1.2L484.8,132.7z"/>
					</g>
					<g>
						
							<rect x="483.3" y="131.4" transform="matrix(0.7066 0.7076 -0.7076 0.7066 235.5365 -303.8271)" fill="#FFFFFF" width="1.7" height="1.5"/>
					</g>
				</g>
				<g>
					<g>
						<path fill="#58B7DD" d="M477.7,139.8l-1.2-1.2L477.7,139.8z"/>
					</g>
					<g>
						
							<rect x="476.3" y="138.4" transform="matrix(0.7066 0.7076 -0.7076 0.7066 238.4626 -296.792)" fill="#FFFFFF" width="1.7" height="1.5"/>
					</g>
				</g>
				<g>
					<g>
						<path fill="#58B7DD" d="M470.7,146.8l-1.2-1.2L470.7,146.8z"/>
					</g>
					<g>
						
							<rect x="469.2" y="145.4" transform="matrix(0.7066 0.7076 -0.7076 0.7066 241.3552 -289.7388)" fill="#FFFFFF" width="1.7" height="1.5"/>
					</g>
				</g>
				<g>
					<g>
						<path fill="#58B7DD" d="M463.6,153.8l-1.2-1.2L463.6,153.8z"/>
					</g>
					<g>
						
							<rect x="462.2" y="152.5" transform="matrix(0.7066 0.7076 -0.7076 0.7066 244.2645 -282.6946)" fill="#FFFFFF" width="1.7" height="1.5"/>
					</g>
				</g>
				<g>
					<g>
						<path fill="#58B7DD" d="M456.6,160.9l-1.2-1.2L456.6,160.9z"/>
					</g>
					<g>
						
							<rect x="455.1" y="159.5" transform="matrix(0.7066 0.7076 -0.7076 0.7066 247.1904 -275.6583)" fill="#FFFFFF" width="1.7" height="1.5"/>
					</g>
				</g>
				<g>
					<g>
						<path fill="#58B7DD" d="M449.6,167.9l-1.2-1.2L449.6,167.9z"/>
					</g>
					<g>
						
							<rect x="448.1" y="166.5" transform="matrix(0.7066 0.7076 -0.7076 0.7066 250.083 -268.6062)" fill="#FFFFFF" width="1.7" height="1.5"/>
					</g>
				</g>
				<g>
					<g>
						<path fill="#58B7DD" d="M442.5,174.9l-1.2-1.2L442.5,174.9z"/>
					</g>
					<g>
						
							<rect x="441.1" y="173.5" transform="matrix(0.7066 0.7076 -0.7076 0.7066 253.009 -261.5693)" fill="#FFFFFF" width="1.7" height="1.5"/>
					</g>
				</g>
				<g>
					<g>
						<path fill="#58B7DD" d="M435.5,181.9l-1.2-1.2L435.5,181.9z"/>
					</g>
					<g>
						
							<rect x="434" y="180.6" transform="matrix(0.7066 0.7076 -0.7076 0.7066 255.9016 -254.5177)" fill="#FFFFFF" width="1.7" height="1.5"/>
					</g>
				</g>
				<g>
					<g>
						<path fill="#58B7DD" d="M428.4,189l-1.2-1.2L428.4,189z"/>
					</g>
					<g>
						
							<rect x="427" y="187.6" transform="matrix(0.7066 0.7076 -0.7076 0.7066 258.8109 -247.4737)" fill="#FFFFFF" width="1.7" height="1.5"/>
					</g>
				</g>
			</g>
		</g>
	</g>
</g>
</svg>
