<?xml version="1.0" encoding="utf-8"?>
<!-- Generator: Adobe Illustrator 18.0.0, SVG Export Plug-In . SVG Version: 6.00 Build 0)  -->
<!DOCTYPE svg PUBLIC "-//W3C//DTD SVG 1.1//EN" "http://www.w3.org/Graphics/SVG/1.1/DTD/svg11.dtd">
<svg version="1.1" id="Layer_1" xmlns="http://www.w3.org/2000/svg" xmlns:xlink="http://www.w3.org/1999/xlink" x="0px" y="0px"
	 viewBox="0 0 1280 480" enable-background="new 0 0 1280 480" xml:space="preserve">
<rect fill="#4EBD9D" width="1280" height="480"/>
<linearGradient id="SVGID_1_" gradientUnits="userSpaceOnUse" x1="949.8229" y1="373.5382" x2="1290.1283" y2="373.5382">
	<stop  offset="0" style="stop-color:#3FA9F5"/>
	<stop  offset="0.166" style="stop-color:#3D9CEA"/>
	<stop  offset="0.4758" style="stop-color:#3878CD"/>
	<stop  offset="0.8928" style="stop-color:#30409E"/>
	<stop  offset="0.9944" style="stop-color:#2E3192"/>
</linearGradient>
<polygon fill="url(#SVGID_1_)" points="939.7,480 1280,267.1 1280,480 "/>
<polygon fill="#3A98DB" points="939.7,479 1028,309.8 1205.5,314 "/>
<polygon fill="#2C72A4" points="1028,309.8 1264.2,277.2 1205.5,314 "/>
<polygon fill="#B0D6F1" points="1028,309.8 1280.5,200.6 1264.2,277.2 "/>
<polygon fill="#2C72A4" points="1263.7,277.4 1280,267.1 1280,201 "/>
<polygon fill="#175D8E" points="1028,310 1028,424 939.2,479 "/>
<polygon fill="#3A98DB" points="1028.5,310 926,412.5 939.7,479 "/>
<polygon fill="#2C72A4" points="1146.1,350.8 1066.3,479.5 939.7,479 "/>
<polygon fill="#175D8E" points="1146.1,350.8 1180.9,419.9 1066.3,479.5 "/>
<polygon fill="#467DA5" points="1180.8,420.4 1240.1,480 1066,480 "/>
<polygon fill="#3A98DB" points="1240,480 1240,361 1180.3,419.9 "/>
<polygon fill="#2C72A4" points="1240.5,361 1146.1,350.8 1180.4,418.9 "/>
<polygon fill="#61ADE2" points="1240,361 1280,399.5 1240,480 "/>
<polygon fill="#1D4C6E" points="1280,399 1280,481 1240,481 "/>
<polygon fill="#2C72A4" points="1240,361 1280,267.1 1280,399 "/>
<polygon fill="#61ADE2" points="1240.5,361 1146.1,350.8 1280.5,267.1 "/>
<polygon fill="#61ADE2" points="926.1,413.5 750.6,480 940,480 "/>
<linearGradient id="SVGID_2_" gradientUnits="userSpaceOnUse" x1="414.8249" y1="93.32" x2="755.1953" y2="93.32" gradientTransform="matrix(-1 0 0 -1 745.065 199.5636)">
	<stop  offset="0" style="stop-color:#3FA9F5"/>
	<stop  offset="0.166" style="stop-color:#3D9CEA"/>
	<stop  offset="0.4758" style="stop-color:#3878CD"/>
	<stop  offset="0.8928" style="stop-color:#30409E"/>
	<stop  offset="0.9944" style="stop-color:#2E3192"/>
</linearGradient>
<polygon fill="url(#SVGID_2_)" points="340.4,0 0,212.5 0,0 "/>
<polygon fill="#3A98DB" points="340.4,0.6 252,169.8 74.6,165.6 "/>
<polygon fill="#2C72A4" points="252,169.8 15.8,202.3 74.6,165.6 "/>
<polygon fill="#B0D6F1" points="252,169.8 -0.4,279 15.8,202.3 "/>
<polygon fill="#175D8E" points="16.3,202.1 0,212.5 0,278.6 "/>
<polygon fill="#175D8E" points="252,169.6 252,55.6 340.8,0.6 "/>
<polygon fill="#3A98DB" points="251.6,169.6 354.1,67 340.4,0.6 "/>
<polygon fill="#2C72A4" points="133.9,128.7 213.7,0.1 340.4,0.6 "/>
<polygon fill="#175D8E" points="133.9,128.7 99.1,59.7 213.7,0.1 "/>
<polygon fill="#467DA5" points="99.3,59.6 39.9,0 214.1,0 "/>
<polygon fill="#3A98DB" points="40,-0.4 40,118.6 99.7,59.7 "/>
<polygon fill="#2C72A4" points="39.6,118.6 133.9,128.7 99.6,60.7 "/>
<polygon fill="#61ADE2" points="40,118.6 0,80.1 40,-0.4 "/>
<polygon fill="#175D8E" points="0,80.6 0,-1 40.1,-1 "/>
<polygon fill="#2C72A4" points="40,118.6 0,212.5 0,80.6 "/>
<polygon fill="#61ADE2" points="39.6,118.6 133.9,128.7 -0.4,212.5 "/>
<polygon fill="#61ADE2" points="354,66.5 529.5,0 340.1,0 "/>
<polygon fill="#89C1E9" points="354,66.5 335.7,140.8 251.6,169.6 "/>
<polygon fill="#2C72A4" points="0,417.5 251.6,169.6 0,278.6 "/>
<polygon fill="#89C1E9" points="441.9,29.2 687,-1 522,-1 "/>
<polygon fill="#61ADE2" points="939.8,479 941.3,479 940,479.8 "/>
</svg>
