<?xml version="1.0" encoding="utf-8"?>
<!-- Generator: Adobe Illustrator 18.0.0, SVG Export Plug-In . SVG Version: 6.00 Build 0)  -->
<!DOCTYPE svg PUBLIC "-//W3C//DTD SVG 1.1//EN" "http://www.w3.org/Graphics/SVG/1.1/DTD/svg11.dtd">
<svg version="1.1" id="Layer_1" xmlns="http://www.w3.org/2000/svg" xmlns:xlink="http://www.w3.org/1999/xlink" x="0px" y="0px"
	 viewBox="0 0 704.2 264.5" enable-background="new 0 0 704.2 264.5" xml:space="preserve">
<pattern  y="0.8" width="90.9" height="154.9" patternUnits="userSpaceOnUse" id="New_Pattern_5" viewBox="16.4 -168.4 90.9 154.9" overflow="visible">
	<g>
		<polygon fill="none" points="16.4,-168.4 107.3,-168.4 107.3,-13.6 16.4,-13.6 		"/>
		<g>
			<g>
				<polygon fill="none" points="90.9,-6 112.4,-1.2 116.7,-20.7 95.2,-25.5 				"/>
				<g>
					<polygon fill="#C061C0" points="100.7,-3.8 96.9,-9.8 98.4,-16.7 104.4,-20.4 111.2,-18.9 115,-13 113.5,-6.1 107.5,-2.3 					
						"/>
					<polygon fill="#F0D9F0" points="106.9,-22.9 100,-24.4 104.4,-20.4 111.2,-18.9 					"/>
					<polygon fill="#CF87CF" points="92.6,-13.7 94.1,-20.6 98.4,-16.7 96.9,-9.8 					"/>
					<polygon fill="#DAA3DA" points="104.4,-20.4 100,-24.4 94.1,-20.6 98.4,-16.7 					"/>
					<polygon fill="#AF38AF" points="100.7,-3.8 96.9,-9.8 92.6,-13.7 96.3,-7.8 					"/>
				</g>
			</g>
			<g>
				<polygon fill="none" points="61.8,-8.9 78.8,-0.9 86.8,-17.8 69.8,-25.8 				"/>
				<g>
					<path fill="#BA52BA" d="M84.5-13c-1.3,2.7-6.1,3.1-10.7,0.9c-4.7-2.2-7.4-6.1-6.2-8.8l-3.4,7.2c-1.3,2.7,1.5,6.6,6.2,8.8
						C75-2.7,79.8-3,81.1-5.7L84.5-13z"/>
					<g>
						<path fill="#CF87CF" d="M78.3-21.8c-4.7-2.2-9.5-1.8-10.7,0.9c-1.3,2.7,1.5,6.6,6.2,8.8c4.7,2.2,9.5,1.8,10.7-0.9
							C85.7-15.6,83-19.6,78.3-21.8z"/>
						<path fill="none" stroke="#990099" stroke-width="0.3" stroke-linejoin="round" stroke-miterlimit="50" d="M76-17"/>
					</g>
				</g>
			</g>
			<g>
				<polygon fill="none" points="95.8,-35.4 112.7,-27.4 120.7,-44.3 103.7,-52.3 				"/>
				<g>
					<path fill="#BA52BA" d="M118.4-39.5c-1.3,2.7-6.1,3.1-10.7,0.9c-4.7-2.2-7.4-6.1-6.2-8.8L98-40.2c-1.3,2.7,1.5,6.6,6.2,8.8
						c4.7,2.2,9.5,1.8,10.7-0.9L118.4-39.5z"/>
					<g>
						<path fill="#CF87CF" d="M112.2-48.3c-4.7-2.2-9.5-1.8-10.7,0.9c-1.3,2.7,1.5,6.6,6.2,8.8c4.7,2.2,9.5,1.8,10.7-0.9
							C119.7-42.2,116.9-46.1,112.2-48.3z"/>
					</g>
				</g>
			</g>
			<g>
				<polygon fill="none" points="66.2,-28.9 89.4,-27.3 90.8,-46.1 67.5,-47.7 				"/>
				<g>
					<polygon fill="#B340B3" points="76.6,-44.4 81.5,-46.7 71,-31.3 66.2,-28.9 					"/>
					<polygon fill="#CF87CF" points="71,-31.3 89.6,-29.9 81.5,-46.7 					"/>
					<polygon fill="#B03BB0" points="89.6,-29.9 84.7,-27.6 66.2,-28.9 71,-31.3 					"/>
				</g>
			</g>
		</g>
		<g>
			<g>
				<polygon fill="none" points="0,-6 21.5,-1.2 25.9,-20.7 4.3,-25.5 				"/>
				<g>
					<polygon fill="#C061C0" points="9.8,-3.8 6,-9.8 7.6,-16.7 13.5,-20.4 20.4,-18.9 24.1,-13 22.6,-6.1 16.7,-2.3 					"/>
					<polygon fill="#F0D9F0" points="16,-22.9 9.2,-24.4 13.5,-20.4 20.4,-18.9 					"/>
				</g>
			</g>
			<g>
				<polygon fill="none" points="33.9,-31.4 56.5,-24.8 61.8,-43.1 39.3,-49.6 				"/>
				<g>
					<polygon fill="#D391D3" points="52,-26.1 43,-28.7 40.7,-37.9 47.5,-44.4 56.6,-41.8 58.8,-32.6 					"/>
					<polygon fill="#DDABDD" points="56.6,-41.8 47.5,-44.4 43.8,-48.3 52.8,-45.7 					"/>
					<polygon fill="#C56EC5" points="40.7,-37.9 43,-28.7 39.2,-32.7 37,-41.8 					"/>
					<polygon fill="#CB7DCB" points="47.5,-44.4 43.8,-48.3 37,-41.8 40.7,-37.9 					"/>
					<path fill="none" d="M49.8-35.2"/>
				</g>
			</g>
			<g>
				<polygon fill="none" points="29.3,-1.9 53.4,0 55.2,-22.4 31.1,-24.4 				"/>
				<g>
					<polygon fill="#ECCFEC" points="35.8,-3 39,-10.8 32.7,-16.2 41,-15.6 44.3,-23.3 46.2,-15.1 54.6,-14.5 47.4,-10.1 49.4,-1.9 
						43,-7.4 					"/>
					<polygon fill="#F5E6F5" points="33.5,-1.6 36.8,-9.4 30.4,-14.8 32.7,-16.2 39,-10.8 35.8,-3 					"/>
					<polygon fill="#F9F0F9" points="39.4,-15.7 42,-21.9 44.3,-23.3 41,-15.6 					"/>
				</g>
			</g>
			<g>
				<polygon fill="none" points="4.9,-35.4 21.9,-27.4 29.8,-44.3 12.9,-52.3 				"/>
				<g>
					<path fill="#BA52BA" d="M27.5-39.5c-1.3,2.7-6.1,3.1-10.7,0.9c-4.7-2.2-7.4-6.1-6.2-8.8l-3.4,7.2c-1.3,2.7,1.5,6.6,6.2,8.8
						c4.7,2.2,9.5,1.8,10.7-0.9L27.5-39.5z"/>
					<g>
						<path fill="#CF87CF" d="M21.4-48.3c-4.7-2.2-9.5-1.8-10.7,0.9c-1.3,2.7,1.5,6.6,6.2,8.8c4.7,2.2,9.5,1.8,10.7-0.9
							C28.8-42.2,26-46.1,21.4-48.3z"/>
						<path fill="none" stroke="#990099" stroke-width="0.3" stroke-linejoin="round" stroke-miterlimit="50" d="M19.1-43.5"/>
					</g>
				</g>
			</g>
		</g>
		<g>
			<g>
				<polygon fill="none" points="45.4,-83.5 67,-78.7 71.3,-98.1 49.7,-102.9 				"/>
				<g>
					<polygon fill="#C061C0" points="55.2,-81.3 51.5,-87.2 53,-94.1 58.9,-97.9 65.8,-96.3 69.6,-90.4 68,-83.5 62.1,-79.7 					
						"/>
					<polygon fill="#F0D9F0" points="61.5,-100.3 54.6,-101.8 58.9,-97.9 65.8,-96.3 					"/>
					<polygon fill="#CF87CF" points="47.1,-91.2 48.7,-98 53,-94.1 51.5,-87.2 					"/>
					<polygon fill="#DAA3DA" points="58.9,-97.9 54.6,-101.8 48.7,-98 53,-94.1 					"/>
					<polygon fill="#AF38AF" points="55.2,-81.3 51.5,-87.2 47.1,-91.2 50.9,-85.2 					"/>
					<path fill="none" d="M60.5-88.8"/>
				</g>
			</g>
			<g>
				<polygon fill="none" points="79.4,-108.8 102,-102.2 107.3,-120.5 84.7,-127 				"/>
				<g>
					<polygon fill="#D391D3" points="97.4,-103.5 88.4,-106.2 86.2,-115.3 93,-121.8 102,-119.2 104.2,-110 					"/>
					<polygon fill="#DDABDD" points="102,-119.2 93,-121.8 89.2,-125.7 98.2,-123.1 					"/>
					<polygon fill="#C56EC5" points="86.2,-115.3 88.4,-106.2 84.7,-110.1 82.4,-119.2 					"/>
					<polygon fill="#CB7DCB" points="93,-121.8 89.2,-125.7 82.4,-119.2 86.2,-115.3 					"/>
					<path fill="none" d="M95.2-112.7"/>
				</g>
			</g>
			<g>
				<polygon fill="none" points="79.4,-58.8 96.7,-53 102.5,-70.3 85.3,-76.1 				"/>
				<g>
					<g>
						<polygon fill="#C56EC5" points="96.7,-53 101.4,-66.8 87.6,-71.5 82.9,-57.7 						"/>
						<path fill="none" d="M92.1-62.2"/>
					</g>
					<polygon fill="#E2B8E2" points="85.3,-76.1 87.6,-71.5 101.4,-66.8 99.1,-71.4 					"/>
					<polygon fill="#C163C1" points="82.9,-57.7 80.6,-62.3 85.3,-76.1 87.6,-71.5 					"/>
				</g>
			</g>
			<g>
				<polygon fill="none" points="24.4,-52.3 48.1,-56.9 43.8,-79 20.1,-74.4 				"/>
				<g>
					<path fill="none" d="M35.2-65.5"/>
					<polygon fill="#ECCFEC" points="30.3,-55 31.4,-63.4 23.7,-67 32,-68.5 33,-76.9 37.1,-69.5 45.3,-71.1 39.6,-65 43.7,-57.6 
						36.1,-61.2 					"/>
					<polygon fill="#F5E6F5" points="28.5,-53.1 29.5,-61.4 21.9,-65 23.7,-67 31.4,-63.4 30.3,-55 					"/>
					<polygon fill="#E4BDE4" points="41.8,-55.7 34.2,-59.2 36.1,-61.2 43.7,-57.6 					"/>
					<polygon fill="#F9F0F9" points="30.4,-68.2 31.2,-74.9 33,-76.9 32,-68.5 					"/>
				</g>
			</g>
			<g>
				<polygon fill="none" points="74.8,-79.4 98.9,-77.4 100.7,-99.9 76.6,-101.8 				"/>
				<g>
					<path fill="none" d="M88.8-89.2"/>
					<polygon fill="#ECCFEC" points="81.2,-80.4 84.5,-88.2 78.1,-93.7 86.5,-93 89.7,-100.7 91.6,-92.6 100,-91.9 92.9,-87.5 
						94.8,-79.3 88.4,-84.8 					"/>
					<polygon fill="#F5E6F5" points="79,-79 82.2,-86.8 75.8,-92.3 78.1,-93.7 84.5,-88.2 81.2,-80.4 					"/>
					<polygon fill="#E4BDE4" points="92.5,-77.9 86.1,-83.4 88.4,-84.8 94.8,-79.3 					"/>
					<polygon fill="#F9F0F9" points="84.8,-93.1 87.4,-99.3 89.7,-100.7 86.5,-93 					"/>
				</g>
			</g>
			<g>
				<polygon fill="none" points="16.4,-86.3 33.4,-78.3 41.3,-95.2 24.4,-103.2 				"/>
				<g>
					<path fill="#BA52BA" d="M39.1-90.4c-1.3,2.7-6.1,3.1-10.7,0.9c-4.7-2.2-7.4-6.1-6.2-8.8l-3.4,7.2c-1.3,2.7,1.5,6.6,6.2,8.8
						c4.7,2.2,9.5,1.8,10.7-0.9L39.1-90.4z"/>
					<g>
						<path fill="#CF87CF" d="M32.9-99.2c-4.7-2.2-9.5-1.8-10.7,0.9c-1.3,2.7,1.5,6.6,6.2,8.8c4.7,2.2,9.5,1.8,10.7-0.9
							C40.3-93.1,37.5-97,32.9-99.2z"/>
						<path fill="none" stroke="#990099" stroke-width="0.3" stroke-linejoin="round" stroke-miterlimit="50" d="M30.6-94.4"/>
					</g>
				</g>
			</g>
			<g>
				<polygon fill="none" points="50.3,-112.8 67.3,-104.8 75.3,-121.7 58.3,-129.7 				"/>
				<g>
					<path fill="#BA52BA" d="M73-116.9c-1.3,2.7-6.1,3.1-10.7,0.9c-4.7-2.2-7.4-6.1-6.2-8.8l-3.4,7.2c-1.3,2.7,1.5,6.6,6.2,8.8
						c4.7,2.2,9.5,1.8,10.7-0.9L73-116.9z"/>
					<g>
						<path fill="#CF87CF" d="M66.8-125.7c-4.7-2.2-9.5-1.8-10.7,0.9c-1.3,2.7,1.5,6.6,6.2,8.8c4.7,2.2,9.5,1.8,10.7-0.9
							C74.2-119.6,71.5-123.5,66.8-125.7z"/>
						<path fill="none" stroke="#990099" stroke-width="0.3" stroke-linejoin="round" stroke-miterlimit="50" d="M64.5-120.9"/>
					</g>
				</g>
			</g>
			<g>
				<polygon fill="none" points="20.7,-106.4 44,-104.7 45.3,-123.5 22.1,-125.2 				"/>
				<g>
					<polygon fill="#B340B3" points="31.2,-121.8 36,-124.2 25.6,-108.7 20.7,-106.4 					"/>
					<polygon fill="#CF87CF" points="25.6,-108.7 44.2,-107.4 36,-124.2 					"/>
					<polygon fill="#B03BB0" points="44.1,-107.4 39.3,-105 20.7,-106.4 25.6,-108.7 					"/>
				</g>
			</g>
			<g>
				<polygon fill="none" points="49.6,-55.2 72.9,-53.5 74.2,-72.3 51,-74 				"/>
				<g>
					<polygon fill="#B340B3" points="60.1,-70.6 64.9,-73 54.4,-57.5 49.6,-55.2 					"/>
					<polygon fill="#CF87CF" points="54.4,-57.5 73,-56.2 64.9,-73 					"/>
					<polygon fill="#B03BB0" points="73,-56.2 68.2,-53.8 49.6,-55.2 54.4,-57.5 					"/>
				</g>
			</g>
		</g>
		<g>
			<g>
				<polygon fill="none" points="90.9,-160.9 112.4,-156.1 116.7,-175.5 95.2,-180.3 				"/>
				<g>
					<polygon fill="#C061C0" points="100.7,-158.7 96.9,-164.6 98.4,-171.5 104.4,-175.3 111.2,-173.8 115,-167.8 113.5,-161 
						107.5,-157.2 					"/>
					<polygon fill="#CF87CF" points="92.6,-168.6 94.1,-175.5 98.4,-171.5 96.9,-164.6 					"/>
					<polygon fill="#AF38AF" points="100.7,-158.7 96.9,-164.6 92.6,-168.6 96.3,-162.7 					"/>
					<path fill="none" d="M105.9-166.3"/>
				</g>
			</g>
			<g>
				<polygon fill="none" points="69.8,-129.7 93.5,-134.3 89.3,-156.4 65.5,-151.8 				"/>
				<g>
					<path fill="none" d="M80.6-143"/>
					<polygon fill="#ECCFEC" points="75.7,-132.5 76.8,-140.8 69.2,-144.4 77.4,-146 78.5,-154.3 82.5,-147 90.8,-148.5 85,-142.4 
						89.1,-135 81.5,-138.6 					"/>
					<polygon fill="#F5E6F5" points="73.9,-130.5 74.9,-138.9 67.3,-142.4 69.2,-144.4 76.8,-140.8 75.7,-132.5 					"/>
					<polygon fill="#E4BDE4" points="87.3,-133.1 79.7,-136.7 81.5,-138.6 89.1,-135 					"/>
					<polygon fill="#F9F0F9" points="75.8,-145.7 76.6,-152.4 78.5,-154.3 77.4,-146 					"/>
				</g>
			</g>
			<g>
				<polygon fill="none" points="61.8,-163.7 78.8,-155.7 86.8,-172.7 69.8,-180.6 				"/>
				<g>
					<path fill="#BA52BA" d="M84.5-167.8c-1.3,2.7-6.1,3.1-10.7,0.9c-4.7-2.2-7.4-6.1-6.2-8.8l-3.4,7.2c-1.3,2.7,1.5,6.6,6.2,8.8
						c4.7,2.2,9.5,1.8,10.7-0.9L84.5-167.8z"/>
					<g>
						<path fill="#CF87CF" d="M78.3-176.7c-4.7-2.2-9.5-1.8-10.7,0.9c-1.3,2.7,1.5,6.6,6.2,8.8c4.7,2.2,9.5,1.8,10.7-0.9
							C85.7-170.5,83-174.5,78.3-176.7z"/>
					</g>
				</g>
			</g>
			<g>
				<polygon fill="none" points="95,-132.6 118.3,-130.9 119.6,-149.7 96.4,-151.4 				"/>
				<g>
					<polygon fill="#B340B3" points="105.5,-148 110.3,-150.4 99.9,-134.9 95,-132.6 					"/>
					<polygon fill="#CF87CF" points="99.9,-134.9 118.5,-133.6 110.3,-150.4 					"/>
					<polygon fill="#B03BB0" points="118.4,-133.6 113.6,-131.3 95,-132.6 99.9,-134.9 					"/>
				</g>
			</g>
		</g>
		<g>
			<g>
				<polygon fill="none" points="0,-160.9 21.5,-156.1 25.9,-175.5 4.3,-180.3 				"/>
				<g>
					<polygon fill="#C061C0" points="9.8,-158.7 6,-164.6 7.6,-171.5 13.5,-175.3 20.4,-173.8 24.1,-167.8 22.6,-161 16.7,-157.2 
											"/>
				</g>
			</g>
			<g>
				<polygon fill="none" points="34,-136.3 51.3,-130.4 57.1,-147.7 39.8,-153.5 				"/>
				<g>
					<g>
						<polygon fill="#C56EC5" points="51.3,-130.4 55.9,-144.3 42.1,-148.9 37.5,-135.1 						"/>
						<path fill="none" d="M46.7-139.7"/>
					</g>
					<polygon fill="#E2B8E2" points="39.8,-153.5 42.1,-148.9 55.9,-144.3 53.7,-148.9 					"/>
					<polygon fill="#C163C1" points="37.5,-135.1 35.2,-139.7 39.8,-153.5 42.1,-148.9 					"/>
				</g>
			</g>
			<g>
				<polygon fill="none" points="29.3,-156.8 53.4,-154.9 55.2,-177.3 31.1,-179.2 				"/>
				<g>
					<path fill="none" d="M43.3-166.6"/>
					<polygon fill="#ECCFEC" points="35.8,-157.9 39,-165.6 32.7,-171.1 41,-170.4 44.3,-178.2 46.2,-170 54.6,-169.3 47.4,-164.9 
						49.4,-156.8 43,-162.2 					"/>
					<polygon fill="#F5E6F5" points="33.5,-156.5 36.8,-164.2 30.4,-169.7 32.7,-171.1 39,-165.6 35.8,-157.9 					"/>
					<polygon fill="#E4BDE4" points="47.1,-155.4 40.7,-160.8 43,-162.2 49.4,-156.8 					"/>
				</g>
			</g>
			<g>
				<polygon fill="none" points="4.2,-132.6 27.4,-130.9 28.8,-149.7 5.5,-151.4 				"/>
				<g>
					<polygon fill="#B340B3" points="14.6,-148 19.5,-150.4 9,-134.9 4.2,-132.6 					"/>
					<polygon fill="#CF87CF" points="9,-134.9 27.6,-133.6 19.5,-150.4 					"/>
					<polygon fill="#B03BB0" points="27.6,-133.6 22.8,-131.3 4.2,-132.6 9,-134.9 					"/>
				</g>
			</g>
		</g>
	</g>
</pattern>
<rect y="0.4" fill="#8E44AD" width="704.2" height="264.1"/>
<polygon fill="url(#New_Pattern_5)" points="653.1,0 653.1,1.5 0,1.5 0,264.5 704.2,264.5 704.2,0 "/>
</svg>
