<svg version="1.1" id="brain-head" xmlns="http://www.w3.org/2000/svg" xmlns:xlink="http://www.w3.org/1999/xlink" x="0px" y="0px"
	 viewBox="0 0 294.9 294.9" enable-background="new 0 0 294.9 294.9" xml:space="preserve">
<circle fill="#E74C3C" cx="147.5" cy="147.5" r="147.5"/>
<path fill="#F9D09E" d="M101.5,182.5c0,0-30.5-22.4-27.8-62.5c0,0-3.8-45.4,61.2-54.5c0,0,70.3-0.5,77.7,49.3l2.8,30.9
	c0,0,10.4,19.2,16.2,22.3c0,0,4,4.3-10.4,8.3l0,5.9c0,0,0.7,3.7,2.1,5.1l-2.1,2.6h-6.6l5.5,5.5l-4.8,8l2.9,6.8l0.2,7.8
	c0,0-0.5,2.7-12.7,4c0,0-31.2,4-34.9,13.7l-7,10.2H98.6c0,0,2.2-9.7,2.7-20.1S101.5,182.5,101.5,182.5z"/>
<path fill="#F8A5C9" d="M109,177.2c0,0-28.8-19.2-27.3-46.5c0,0-9.1-30.3,23.8-50.6c0,0,16.7-10.2,38.1-9.4c0,0,55.7,6.8,64.7,41.9
	c9,35.2-28.1,27.6-28.1,27.6s3.1,14.3-5.3,16.9c0,0-0.3,7.3-21.7,1.1C153.1,158.2,144.5,189.1,109,177.2z"/>
<g>
	<path fill="#F1C538" d="M63.9,150.2l-24.4,4c-3,0.5-5.8-1.5-6.3-4.5v0c-0.5-3,1.5-5.8,4.5-6.3l24.4-4c3-0.5,5.8,1.5,6.3,4.5l0,0
		C68.9,146.9,66.9,149.8,63.9,150.2z"/>
	<path fill="#F1C538" d="M64,105.6l-23.8-6.8c-2.9-0.8-4.6-3.9-3.8-6.8l0,0c0.8-2.9,3.9-4.6,6.8-3.8L67,95.1
		c2.9,0.8,4.6,3.9,3.8,6.8v0C69.9,104.7,66.9,106.4,64,105.6z"/>
	<path fill="#F1C538" d="M97.9,62.9L85.2,41.7c-1.6-2.6-0.7-5.9,1.9-7.5l0,0c2.6-1.6,5.9-0.7,7.5,1.9l12.7,21.2
		c1.6,2.6,0.7,5.9-1.9,7.5l0,0C102.8,66.4,99.5,65.5,97.9,62.9z"/>
	<path fill="#F1C538" d="M157.7,49.1l6.9-23.7c0.8-2.9,3.9-4.6,6.8-3.7l0,0c2.9,0.8,4.6,3.9,3.7,6.8l-6.9,23.7
		c-0.8,2.9-3.9,4.6-6.8,3.7l0,0C158.5,55.1,156.8,52,157.7,49.1z"/>
	<path fill="#F1C538" d="M204.6,70.4l13.1-20.9c1.6-2.6,5-3.3,7.5-1.7v0c2.6,1.6,3.3,5,1.7,7.5l-13.1,20.9c-1.6,2.6-5,3.3-7.5,1.7
		l0,0C203.8,76.3,203,72.9,204.6,70.4z"/>
	<path fill="#F1C538" d="M226.5,104l23.7-6.9c2.9-0.8,5.9,0.8,6.8,3.7v0c0.8,2.9-0.8,5.9-3.7,6.8l-23.7,6.9
		c-2.9,0.8-5.9-0.8-6.8-3.7l0,0C221.9,107.9,223.6,104.9,226.5,104z"/>
</g>
</svg>
