<svg version="1.1" id="Layer_1" xmlns="http://www.w3.org/2000/svg" xmlns:xlink="http://www.w3.org/1999/xlink" x="0px" y="0px"
	 width="800px" height="800px" viewBox="0 0 800 800" enable-background="new 0 0 800 800" xml:space="preserve">
<path fill="#1A1A1A" d="M695.62,400.182c0,163.41-132.468,295.888-295.888,295.888c-163.41,0-295.883-132.478-295.883-295.888
	c0-163.415,132.473-295.888,295.883-295.888C563.152,104.294,695.62,236.767,695.62,400.182z"/>
<path fill="#FFFFFF" d="M686.208,400.182c0,158.21-128.256,286.466-286.476,286.466c-158.209,0-286.466-128.256-286.466-286.466
	c0-158.214,128.256-286.471,286.466-286.471C557.952,113.711,686.208,241.967,686.208,400.182z"/>
<g>
	
		<line fill="none" stroke="#1A1A1A" stroke-width="10" stroke-miterlimit="10" x1="580.997" y1="580.909" x2="218.473" y2="218.384"/>
	
		<line fill="none" stroke="#1A1A1A" stroke-width="10" stroke-miterlimit="10" x1="218.473" y1="580.909" x2="580.997" y2="218.384"/>
</g>
<g>
	<path fill="#1A1A1A" d="M172.823,458.121v-7.905l6.191-1.209c2.065-0.336,2.406-1.89,2.406-3.089v-90.1
		c0-1.209-0.341-2.754-2.406-3.099l-6.191-1.199v-7.916h83.394v9.978H193.11v40.92h61.557v9.806H193.11v43.846h63.106v9.968H172.823
		z"/>
</g>
<g>
	<path fill="#1A1A1A" d="M430.463,262.283v-7.911l5.157-1.031c1.549-0.346,2.753-0.518,2.753-2.236c0-0.686-0.172-1.199-0.69-2.581
		l-8.77-20.973H366.67l-8.769,20.973c-0.518,1.381-0.691,1.895-0.691,2.581c0,1.718,1.209,1.89,2.754,2.236l5.162,1.031v7.911
		h-29.407v-7.911l6.016-1.549c2.581-0.686,3.444-1.89,4.471-3.953l37.83-88.037c0.864-1.89,0.346-3.607-1.89-3.953l-6.361-1.204
		v-7.911h33.354l40.579,101.104c0.863,2.235,1.895,3.267,4.471,3.953l6.021,1.549v7.911H430.463z M402.605,160.315
		c-1.031-2.749-1.544-4.125-4.125-4.125s-3.094,1.549-4.125,4.125l-23.904,57.95h54.855L402.605,160.315z"/>
</g>
<g>
	<path fill="#1A1A1A" d="M585.861,353.755v92.163c0,1.199,0.346,2.753,2.408,3.089l6.188,1.209v7.905h-28.889v-7.905l6.188-1.209
		c2.072-0.336,2.408-1.89,2.408-3.089v-92.163h-42.81v-10.151h97.324v10.151H585.861z"/>
</g>
<g>
	<g>
		<g>
			<g>
				<path fill="#414042" d="M396.835,524.787c-0.609,1.576-2.652,2.239-4.6,1.595c-18.613-6.174-38.727-6.175-57.341-0.003
					c-1.953,0.646-4-0.016-4.609-1.592l0,0c-0.602-1.556,0.59-3.476,2.698-4.173c19.855-6.583,41.31-6.582,61.165,0.003
					C396.25,521.313,397.438,523.231,396.835,524.787L396.835,524.787z"/>
				<path fill="none" stroke="#414042" stroke-width="6" stroke-miterlimit="10" d="M396.835,524.787
					c-0.609,1.576-2.652,2.239-4.6,1.595c-18.613-6.174-38.727-6.175-57.341-0.003c-1.953,0.646-4-0.016-4.609-1.592l0,0
					c-0.602-1.556,0.59-3.476,2.698-4.173c19.855-6.583,41.31-6.582,61.165,0.003C396.25,521.313,397.438,523.231,396.835,524.787
					L396.835,524.787z"/>
			</g>
			<g>
				<path fill="#414042" d="M465.461,522.706c-0.516-1.652-2.827-2.174-5.112-1.371c-21.91,7.266-42.84,7.267-64.75,0.004
					c-2.292-0.805-4.606-0.286-5.124,1.367l0,0c-0.505,1.612,1.079,3.751,3.494,4.567c22.872,7.453,45.137,7.452,68.009-0.002
					C464.387,526.455,465.968,524.319,465.461,522.706L465.461,522.706z"/>
				<path fill="none" stroke="#414042" stroke-width="6" stroke-miterlimit="10" d="M465.461,522.706
					c-0.516-1.652-2.827-2.174-5.112-1.371c-21.91,7.266-42.84,7.267-64.75,0.004c-2.292-0.805-4.606-0.286-5.124,1.367l0,0
					c-0.505,1.612,1.079,3.751,3.494,4.567c22.872,7.453,45.137,7.452,68.009-0.002
					C464.387,526.455,465.968,524.319,465.461,522.706L465.461,522.706z"/>
			</g>
		</g>
		
			<rect x="368.206" y="520.858" fill="#414042" stroke="#414042" stroke-width="6" stroke-miterlimit="10" width="5.455" height="117.214"/>
		
			<rect x="420.12" y="531.076" fill="#414042" stroke="#414042" stroke-width="6" stroke-miterlimit="10" width="6.227" height="106.996"/>
	</g>
	<polygon fill="#FFFFFF" points="341.956,540.556 329.973,545.237 320.762,521.598 332.745,516.925 	"/>
	<polygon fill="#FFFFFF" points="478.713,532.592 466.729,537.265 457.519,513.624 469.502,508.952 	"/>
</g>
<g>
	<polygon fill="#FFFFFF" stroke="#FFFFFF" stroke-miterlimit="10" points="270.725,244.744 265.635,251.661 214.186,213.831 
		219.28,206.909 	"/>
	<polygon fill="#FFFFFF" stroke="#FFFFFF" stroke-miterlimit="10" points="244.014,271.45 250.941,266.36 213.111,214.911 
		206.184,220 	"/>
</g>
<polygon fill="#FFFFFF" stroke="#FFFFFF" stroke-miterlimit="10" points="575.519,561.355 561.943,574.922 557.606,570.586 
	571.183,557.01 "/>
<g>
	<g>
		<g>
			<g>
				<path fill="#58B7DD" d="M581.732,226.922l-4.092-4.097L581.732,226.922z"/>
				<path fill="none" stroke="#FFFFFF" stroke-width="5.1696" stroke-miterlimit="10" d="M581.732,226.922l-4.092-4.097
					L581.732,226.922z"/>
			</g>
			<g>
				<path fill="#58B7DD" d="M558.028,250.594l-4.091-4.098L558.028,250.594z"/>
				<path fill="none" stroke="#FFFFFF" stroke-width="5.1696" stroke-miterlimit="10" d="M558.028,250.594l-4.091-4.098
					L558.028,250.594z"/>
			</g>
			<g>
				<path fill="#58B7DD" d="M534.323,274.267l-4.092-4.098L534.323,274.267z"/>
				<path fill="none" stroke="#FFFFFF" stroke-width="5.1696" stroke-miterlimit="10" d="M534.323,274.267l-4.092-4.098
					L534.323,274.267z"/>
			</g>
			<g>
				<path fill="#58B7DD" d="M510.617,297.939l-4.091-4.097L510.617,297.939z"/>
				<path fill="none" stroke="#FFFFFF" stroke-width="5.1696" stroke-miterlimit="10" d="M510.617,297.939l-4.091-4.097
					L510.617,297.939z"/>
			</g>
			<g>
				<path fill="#58B7DD" d="M486.912,321.612l-4.092-4.097L486.912,321.612z"/>
				<path fill="none" stroke="#FFFFFF" stroke-width="5.1696" stroke-miterlimit="10" d="M486.912,321.612l-4.092-4.097
					L486.912,321.612z"/>
			</g>
			<g>
				<path fill="#58B7DD" d="M463.207,345.285l-4.092-4.097L463.207,345.285z"/>
				<path fill="none" stroke="#FFFFFF" stroke-width="5.1696" stroke-miterlimit="10" d="M463.207,345.285l-4.092-4.097
					L463.207,345.285z"/>
			</g>
			<g>
				<path fill="#58B7DD" d="M439.501,368.958l-4.092-4.097L439.501,368.958z"/>
				<path fill="none" stroke="#FFFFFF" stroke-width="5.1696" stroke-miterlimit="10" d="M439.501,368.958l-4.092-4.097
					L439.501,368.958z"/>
			</g>
			<g>
				<path fill="#58B7DD" d="M415.796,392.631l-4.092-4.097L415.796,392.631z"/>
				<path fill="none" stroke="#FFFFFF" stroke-width="5.1696" stroke-miterlimit="10" d="M415.796,392.631l-4.092-4.097
					L415.796,392.631z"/>
			</g>
			<g>
				<path fill="#58B7DD" d="M392.09,416.304l-4.092-4.097L392.09,416.304z"/>
				<path fill="none" stroke="#FFFFFF" stroke-width="5.1696" stroke-miterlimit="10" d="M392.09,416.304l-4.092-4.097
					L392.09,416.304z"/>
			</g>
			<g>
				<path fill="#58B7DD" d="M368.384,439.977l-4.091-4.097L368.384,439.977z"/>
				<path fill="none" stroke="#FFFFFF" stroke-width="5.1696" stroke-miterlimit="10" d="M368.384,439.977l-4.091-4.097
					L368.384,439.977z"/>
			</g>
			<g>
				<path fill="#58B7DD" d="M344.679,463.649l-4.091-4.097L344.679,463.649z"/>
				<path fill="none" stroke="#FFFFFF" stroke-width="5.1696" stroke-miterlimit="10" d="M344.679,463.649l-4.091-4.097
					L344.679,463.649z"/>
			</g>
			<g>
				<path fill="#58B7DD" d="M320.974,487.322l-4.092-4.097L320.974,487.322z"/>
				<path fill="none" stroke="#FFFFFF" stroke-width="5.1696" stroke-miterlimit="10" d="M320.974,487.322l-4.092-4.097
					L320.974,487.322z"/>
			</g>
			<g>
				<path fill="#58B7DD" d="M297.268,510.995l-4.092-4.097L297.268,510.995z"/>
				<path fill="none" stroke="#FFFFFF" stroke-width="5.1696" stroke-miterlimit="10" d="M297.268,510.995l-4.092-4.097
					L297.268,510.995z"/>
			</g>
			<g>
				<path fill="#58B7DD" d="M273.563,534.668l-4.092-4.097L273.563,534.668z"/>
				<path fill="none" stroke="#FFFFFF" stroke-width="5.1696" stroke-miterlimit="10" d="M273.563,534.668l-4.092-4.097
					L273.563,534.668z"/>
			</g>
			<g>
				<path fill="#58B7DD" d="M249.857,558.342l-4.092-4.098L249.857,558.342z"/>
				<path fill="none" stroke="#FFFFFF" stroke-width="5.1696" stroke-miterlimit="10" d="M249.857,558.342l-4.092-4.098
					L249.857,558.342z"/>
			</g>
			<g>
				<path fill="#58B7DD" d="M226.151,582.015l-4.092-4.098L226.151,582.015z"/>
				<path fill="none" stroke="#FFFFFF" stroke-width="5.1696" stroke-miterlimit="10" d="M226.151,582.015l-4.092-4.098
					L226.151,582.015z"/>
			</g>
		</g>
	</g>
</g>
</svg>
