<?xml version="1.0" encoding="utf-8"?>
<!-- Generator: Adobe Illustrator 18.0.0, SVG Export Plug-In . SVG Version: 6.00 Build 0)  -->
<!DOCTYPE svg PUBLIC "-//W3C//DTD SVG 1.1//EN" "http://www.w3.org/Graphics/SVG/1.1/DTD/svg11.dtd">
<svg version="1.1" id="Layer_1" xmlns="http://www.w3.org/2000/svg" xmlns:xlink="http://www.w3.org/1999/xlink" x="0px" y="0px"
	 viewBox="39.3 39.3 205.5 205.5" enable-background="new 39.3 39.3 205.5 205.5" xml:space="preserve">
<g>
	<path fill="#1A1A1A" d="M244.9,142.1c0,56.8-46,102.8-102.8,102.8c-56.8,0-102.8-46-102.8-102.8s46-102.8,102.8-102.8
		C198.8,39.3,244.9,85.3,244.9,142.1z"/>
</g>
<g>
	<path fill="#FFFFFF" d="M241.6,142.1c0,55-44.5,99.5-99.5,99.5c-55,0-99.5-44.5-99.5-99.5c0-55,44.5-99.5,99.5-99.5
		C197,42.6,241.6,87.1,241.6,142.1z"/>
</g>
<g>
	<g>
		
			<rect x="53" y="140.2" transform="matrix(0.7071 0.7071 -0.7071 0.7071 141.9483 -58.9045)" fill="#1A1A1A" width="178.1" height="3.3"/>
	</g>
	<g>
		
			<rect x="140.3" y="52.9" transform="matrix(0.7071 0.7071 -0.7071 0.7071 141.9588 -58.9045)" fill="#1A1A1A" width="3.6" height="178.1"/>
	</g>
</g>
<g>
	<g>
		<path fill="#1A1A1A" d="M63.3,162.2v-2.7l2.2-0.4c0.7-0.1,0.8-0.7,0.8-1.1v-31.3c0-0.4-0.1-1-0.8-1.1l-2.2-0.4v-2.7h29v3.5H70.3
			v14.2h21.4v3.4H70.3v15.2h21.9v3.5L63.3,162.2L63.3,162.2z"/>
	</g>
</g>
<g>
	<g>
		<path fill="#1A1A1A" d="M152.8,94.2v-2.7l1.8-0.4c0.5-0.1,1-0.2,1-0.8c0-0.2-0.1-0.4-0.2-0.9l-3-7.3h-21.6l-3,7.3
			c-0.2,0.5-0.2,0.7-0.2,0.9c0,0.6,0.4,0.7,1,0.8l1.8,0.4v2.7h-10.2v-2.7l2.1-0.5c0.9-0.2,1.2-0.7,1.6-1.4l13.1-30.6
			c0.3-0.7,0.1-1.3-0.7-1.4l-2.2-0.4v-2.7h11.6l14.1,35.1c0.3,0.8,0.7,1.1,1.6,1.4l2.1,0.5v2.7H152.8z M143.1,58.8
			c-0.4-1-0.5-1.4-1.4-1.4c-0.9,0-1.1,0.5-1.4,1.4l-8.3,20.1H151L143.1,58.8z"/>
	</g>
</g>
<g>
	<g>
		<path fill="#1A1A1A" d="M206.7,126v32c0,0.4,0.1,1,0.8,1.1l2.2,0.4v2.7h-10v-2.7l2.1-0.4c0.7-0.1,0.8-0.7,0.8-1.1v-32h-14.9v-3.5
			h33.8v3.5L206.7,126L206.7,126z"/>
	</g>
</g>
<g>
	<g>
		<g>
			<g>
				<g>
					<path fill="#ED1C24" d="M141.1,185.4c-0.2,0.5-0.9,0.8-1.6,0.6c-6.5-2.1-13.5-2.1-19.9,0c-0.7,0.2-1.4,0-1.6-0.6l0,0
						c-0.2-0.5,0.2-1.2,0.9-1.5c6.9-2.3,14.3-2.3,21.2,0C140.9,184.2,141.3,184.8,141.1,185.4L141.1,185.4z"/>
				</g>
				<g>
					<path fill="#ED1C24" d="M140,186.6c-0.2,0-0.5,0-0.7-0.1c-3.2-1-6.5-1.6-9.8-1.6c-3.3,0-6.6,0.5-9.8,1.6
						c-0.2,0.1-0.5,0.1-0.7,0.1c-0.7,0-1.4-0.4-1.6-1c-0.1-0.4-0.1-0.8,0.1-1.1c0.2-0.5,0.7-0.9,1.2-1c3.5-1.2,7.1-1.7,10.8-1.7
						c3.7,0,7.3,0.6,10.8,1.7c0.6,0.2,1,0.6,1.2,1c0.2,0.4,0.2,0.8,0.1,1.1C141.4,186.2,140.7,186.6,140,186.6z M129.5,183.8
						c3.5,0,6.9,0.6,10.1,1.6c0.1,0,0.2,0.1,0.3,0.1c0.3,0,0.5-0.1,0.6-0.3c0-0.1,0-0.2,0-0.3c-0.1-0.2-0.3-0.4-0.6-0.5
						c-3.4-1.1-6.9-1.7-10.4-1.7c-3.6,0-7.1,0.6-10.4,1.7c-0.3,0.1-0.5,0.3-0.6,0.5c0,0.1-0.1,0.2,0,0.3c0.1,0.2,0.3,0.3,0.6,0.3
						c0.1,0,0.2,0,0.3-0.1C122.7,184.3,126.1,183.8,129.5,183.8z"/>
				</g>
			</g>
			<g>
				<g>
					<path fill="#ED1C24" d="M164.9,184.6c-0.2-0.6-1-0.8-1.8-0.5c-7.6,2.5-14.9,2.5-22.5,0c-0.8-0.3-1.6-0.1-1.8,0.5l0,0
						c-0.2,0.6,0.4,1.3,1.2,1.6c7.9,2.6,15.7,2.6,23.6,0C164.5,185.9,165.1,185.2,164.9,184.6L164.9,184.6z"/>
				</g>
				<g>
					<path fill="#ED1C24" d="M151.9,188.7C151.9,188.7,151.9,188.7,151.9,188.7c-3.9,0-8-0.7-12-2c-1.1-0.4-1.8-1.4-1.6-2.3
						c0.2-0.6,0.8-1,1.6-1c0.3,0,0.6,0.1,0.9,0.2c3.8,1.3,7.4,1.9,11.1,1.9c0,0,0,0,0,0c3.7,0,7.3-0.6,11.1-1.9
						c0.3-0.1,0.6-0.2,0.9-0.2c0.8,0,1.4,0.4,1.6,1c0.3,0.9-0.4,1.9-1.6,2.3C159.9,188.1,155.8,188.7,151.9,188.7z M139.9,184.6
						c-0.3,0-0.5,0.1-0.5,0.2c-0.1,0.2,0.2,0.7,0.9,0.9c3.9,1.3,7.8,1.9,11.6,1.9c3.9,0,7.7-0.6,11.6-1.9c0.6-0.2,0.9-0.7,0.8-0.9
						c0-0.1-0.3-0.2-0.5-0.2c-0.2,0-0.4,0-0.5,0.1c-3.9,1.3-7.6,1.9-11.4,1.9c0,0,0,0,0,0c-3.8,0-7.5-0.6-11.4-1.9
						C140.3,184.6,140.1,184.6,139.9,184.6z"/>
				</g>
			</g>
		</g>
		<g>
			<rect x="131.1" y="184" fill="#ED1C24" width="1.9" height="40.7"/>
			<path fill="#ED1C24" d="M133.6,225.3h-3v-41.8h3V225.3z M131.7,224.2h0.8v-39.6h-0.8V224.2z"/>
		</g>
		<g>
			<rect x="149.2" y="187.5" fill="#ED1C24" width="2.2" height="37.2"/>
			<path fill="#ED1C24" d="M151.9,225.3h-3.3V187h3.3V225.3z M149.7,224.2h1v-36h-1V224.2z"/>
		</g>
	</g>
	<g>
		<polygon fill="#FFFFFF" points="122,190.8 117.8,192.5 114.7,184.3 118.8,182.6 		"/>
	</g>
	<g>
		
			<rect x="163.6" y="180.4" transform="matrix(-0.9317 0.3633 -0.3633 -0.9317 387.4677 296.6999)" fill="#FFFFFF" width="4.5" height="8.8"/>
	</g>
</g>
<g>
	<g>
		<polygon fill="#FFFFFF" points="97.3,88.1 95.5,90.5 77.6,77.4 79.4,75 		"/>
		<path fill="#FFFFFF" d="M95.5,90.7L95.5,90.7l-18-13.3l1.9-2.6l0.1,0.1l18,13.2L95.5,90.7z M77.8,77.3l17.7,13l1.6-2.2l-17.7-13
			L77.8,77.3z"/>
	</g>
	<g>
		<polygon fill="#FFFFFF" points="88,97.4 90.4,95.6 77.3,77.7 74.9,79.5 		"/>
		<path fill="#FFFFFF" d="M88,97.5l-13.3-18l2.6-1.9l13.3,18L88,97.5z M75,79.5l13,17.7l2.2-1.6l-13-17.7L75,79.5z"/>
	</g>
</g>
<g>
	<polygon fill="#FFFFFF" points="203.1,198.1 198.4,202.8 196.9,201.3 201.6,196.6 	"/>
	<path fill="#FFFFFF" d="M198.4,202.9l-1.7-1.7l4.9-4.9l1.7,1.7L198.4,202.9z M197.1,201.3l1.3,1.3l4.6-4.6l-1.3-1.4L197.1,201.3z"
		/>
</g>
<g>
	<g>
		<g>
			<g>
				<g>
					<path fill="#58B7DD" d="M205.3,81.9l-1.4-1.4L205.3,81.9z"/>
				</g>
				<g>
					
						<rect x="203.6" y="80.3" transform="matrix(0.7067 0.7075 -0.7075 0.7067 117.4557 -120.9363)" fill="#FFFFFF" width="2" height="1.8"/>
				</g>
			</g>
			<g>
				<g>
					<path fill="#58B7DD" d="M197.1,90.1l-1.4-1.4L197.1,90.1z"/>
				</g>
				<g>
					
						<rect x="195.3" y="88.5" transform="matrix(0.7066 0.7076 -0.7076 0.7066 120.8736 -112.7051)" fill="#FFFFFF" width="2" height="1.8"/>
				</g>
			</g>
			<g>
				<g>
					<path fill="#58B7DD" d="M188.8,98.3l-1.4-1.4L188.8,98.3z"/>
				</g>
				<g>
					
						<rect x="187.1" y="96.7" transform="matrix(0.7066 0.7076 -0.7076 0.7066 124.2761 -104.4666)" fill="#FFFFFF" width="2" height="1.8"/>
				</g>
			</g>
			<g>
				<g>
					<path fill="#58B7DD" d="M180.6,106.6l-1.4-1.4L180.6,106.6z"/>
				</g>
				<g>
					
						<rect x="178.9" y="105" transform="matrix(0.7066 0.7076 -0.7076 0.7066 127.6786 -96.2282)" fill="#FFFFFF" width="2" height="1.8"/>
				</g>
			</g>
			<g>
				<g>
					<path fill="#58B7DD" d="M172.4,114.8l-1.4-1.4L172.4,114.8z"/>
				</g>
				<g>
					
						<rect x="170.6" y="113.2" transform="matrix(0.7066 0.7076 -0.7076 0.7066 131.0968 -87.9928)" fill="#FFFFFF" width="2" height="1.8"/>
				</g>
			</g>
			<g>
				<g>
					<path fill="#58B7DD" d="M164.1,123l-1.4-1.4L164.1,123z"/>
				</g>
				<g>
					
						<rect x="162.4" y="121.4" transform="matrix(0.7066 0.7076 -0.7076 0.7066 134.4838 -79.7512)" fill="#FFFFFF" width="2" height="1.8"/>
				</g>
			</g>
			<g>
				<g>
					<path fill="#58B7DD" d="M155.9,131.2l-1.4-1.4L155.9,131.2z"/>
				</g>
				<g>
					
						<rect x="154.2" y="129.6" transform="matrix(0.7066 0.7076 -0.7076 0.7066 137.8862 -71.5126)" fill="#FFFFFF" width="2" height="1.8"/>
				</g>
			</g>
			<g>
				<g>
					<path fill="#58B7DD" d="M147.7,139.5l-1.4-1.4L147.7,139.5z"/>
				</g>
				<g>
					
						<rect x="145.9" y="137.8" transform="matrix(0.7066 0.7076 -0.7076 0.7066 141.2887 -63.2742)" fill="#FFFFFF" width="2" height="1.8"/>
				</g>
			</g>
			<g>
				<g>
					<path fill="#58B7DD" d="M139.4,147.7l-1.4-1.4L139.4,147.7z"/>
				</g>
				<g>
					
						<rect x="137.7" y="146.1" transform="matrix(0.7066 0.7076 -0.7076 0.7066 144.699 -55.0354)" fill="#FFFFFF" width="2" height="1.8"/>
				</g>
			</g>
			<g>
				<g>
					<path fill="#58B7DD" d="M131.2,155.9l-1.4-1.4L131.2,155.9z"/>
				</g>
				<g>
					
						<rect x="129.5" y="154.3" transform="matrix(0.7066 0.7076 -0.7076 0.7066 148.0938 -46.7973)" fill="#FFFFFF" width="2" height="1.8"/>
				</g>
			</g>
			<g>
				<g>
					<path fill="#58B7DD" d="M123,164.1l-1.4-1.4L123,164.1z"/>
				</g>
				<g>
					
						<rect x="121.2" y="162.5" transform="matrix(0.7066 0.7076 -0.7076 0.7066 151.4965 -38.5587)" fill="#FFFFFF" width="2" height="1.8"/>
				</g>
			</g>
			<g>
				<g>
					<path fill="#58B7DD" d="M114.7,172.3l-1.4-1.4L114.7,172.3z"/>
				</g>
				<g>
					
						<rect x="113" y="170.7" transform="matrix(0.7066 0.7076 -0.7076 0.7066 154.9067 -30.3185)" fill="#FFFFFF" width="2" height="1.8"/>
				</g>
			</g>
			<g>
				<g>
					<path fill="#58B7DD" d="M106.5,180.6l-1.4-1.4L106.5,180.6z"/>
				</g>
				<g>
					
						<rect x="104.8" y="179" transform="matrix(0.7066 0.7076 -0.7076 0.7066 158.3015 -22.0818)" fill="#FFFFFF" width="2" height="1.8"/>
				</g>
			</g>
			<g>
				<g>
					<path fill="#58B7DD" d="M98.3,188.8l-1.4-1.4L98.3,188.8z"/>
				</g>
				<g>
					
						<rect x="96.5" y="187.2" transform="matrix(0.7066 0.7076 -0.7076 0.7066 161.7117 -13.8408)" fill="#FFFFFF" width="2" height="1.8"/>
				</g>
			</g>
			<g>
				<g>
					<path fill="#58B7DD" d="M90,197l-1.4-1.4L90,197z"/>
				</g>
				<g>
					
						<rect x="88.3" y="195.4" transform="matrix(0.7066 0.7076 -0.7076 0.7066 165.1066 -5.6046)" fill="#FFFFFF" width="2" height="1.8"/>
				</g>
			</g>
			<g>
				<g>
					<path fill="#58B7DD" d="M81.8,205.2l-1.4-1.4L81.8,205.2z"/>
				</g>
				<g>
					
						<rect x="80.1" y="203.6" transform="matrix(0.7066 0.7076 -0.7076 0.7066 168.5091 2.6337)" fill="#FFFFFF" width="2" height="1.8"/>
				</g>
			</g>
		</g>
	</g>
</g>
</svg>
