<?xml version="1.0" encoding="utf-8"?>
<!-- Generator: Adobe Illustrator 18.0.0, SVG Export Plug-In . SVG Version: 6.00 Build 0)  -->
<!DOCTYPE svg PUBLIC "-//W3C//DTD SVG 1.1//EN" "http://www.w3.org/Graphics/SVG/1.1/DTD/svg11.dtd">
<svg version="1.1" id="pencilpaper" xmlns="http://www.w3.org/2000/svg" xmlns:xlink="http://www.w3.org/1999/xlink" x="0px"
	 y="0px" viewBox="0 0 403.8 403.8" enable-background="new 0 0 403.8 403.8" xml:space="preserve">
<circle fill="#49AE61" cx="201.9" cy="201.9" r="201.9"/>
<g id="Pencil">
	
		<rect x="-5.8" y="194.8" transform="matrix(-4.177530e-04 1 -1 -4.177530e-04 290.9946 110.4785)" fill="#FF931E" width="192.1" height="11.7"/>
	<polygon fill="#F2D6BB" points="96.2,104.1 84.5,104.1 88.9,88.9 88.9,89 90.3,84.3 90.3,84.3 91.2,87.5 91.7,89.1 91.7,88.9 	"/>
	<polygon fill="#54514E" points="91.7,88.1 88.9,88 90.3,83.9 90.3,83.9 91.2,86.7 	"/>
	<rect x="84.4" y="296.7" fill="#D9E021" width="11.7" height="11.2"/>
	<path fill="#FF7BAC" d="M84.4,315l0-7.2l11.7,0l0,7.2c0,2.7-2.2,4.9-4.9,4.9l-1.9,0C86.6,319.9,84.4,317.7,84.4,315z"/>
</g>
<path id="Eraser" fill="#FF7BAC" d="M143.8,285.7h-27.6c-4,0-6.9-3.7-6-7.5l11.9-51.3c0.6-2.8,3.1-4.8,6-4.8h27.6c4,0,6.9,3.7,6,7.5
	L149.8,281C149.2,283.8,146.7,285.7,143.8,285.7z"/>
<g id="Notepad">
	<path fill="#FAEDD3" d="M319.5,316.9H189.3c-4.5,0-8.2-3.7-8.2-8.2V112.7c0-4.5,3.7-8.2,8.2-8.2h130.2c4.5,0,8.2,3.7,8.2,8.2v195.9
		C327.7,313.2,324,316.9,319.5,316.9z"/>
	<path fill="#808080" d="M192.7,119.4L192.7,119.4c-1.6,0-2.9-1.3-2.9-2.9v-27c0-1.6,1.3-2.9,2.9-2.9l0,0c1.6,0,2.9,1.3,2.9,2.9v27
		C195.6,118.1,194.3,119.4,192.7,119.4z"/>
	<path fill="#808080" d="M217.2,119.4L217.2,119.4c-1.6,0-2.9-1.3-2.9-2.9v-27c0-1.6,1.3-2.9,2.9-2.9l0,0c1.6,0,2.9,1.3,2.9,2.9v27
		C220.1,118.1,218.8,119.4,217.2,119.4z"/>
	<path fill="#808080" d="M241.7,119.4L241.7,119.4c-1.6,0-2.9-1.3-2.9-2.9v-27c0-1.6,1.3-2.9,2.9-2.9l0,0c1.6,0,2.9,1.3,2.9,2.9v27
		C244.6,118.1,243.3,119.4,241.7,119.4z"/>
	<path fill="#808080" d="M266.2,119.4L266.2,119.4c-1.6,0-2.9-1.3-2.9-2.9v-27c0-1.6,1.3-2.9,2.9-2.9l0,0c1.6,0,2.9,1.3,2.9,2.9v27
		C269.1,118.1,267.8,119.4,266.2,119.4z"/>
	<path fill="#808080" d="M290.7,119.4L290.7,119.4c-1.6,0-2.9-1.3-2.9-2.9v-27c0-1.6,1.3-2.9,2.9-2.9l0,0c1.6,0,2.9,1.3,2.9,2.9v27
		C293.6,118.1,292.3,119.4,290.7,119.4z"/>
	<path fill="#808080" d="M315.2,119.4L315.2,119.4c-1.6,0-2.9-1.3-2.9-2.9v-27c0-1.6,1.3-2.9,2.9-2.9l0,0c1.6,0,2.9,1.3,2.9,2.9v27
		C318.1,118.1,316.8,119.4,315.2,119.4z"/>
	<path fill="#FAEDD3" d="M307.8,316.9l20-29.7h-18.6l0,0c-0.7,0-1.3,0.7-1.3,1.6L307.8,316.9z"/>
	<path fill="#FAEDD3" d="M320.1,316.9c0,0,6.6,0.2,7.5-7.1l0.4-21.9l-20.5,29.2"/>
</g>
<path fill="none" stroke="#E74C3C" stroke-width="4" stroke-linecap="round" stroke-linejoin="round" stroke-miterlimit="10" d="
	M308.1,136.5c-11.5-4.2-24.6-7.4-35.7-2.2c-9.5,4.4-15.7,14.7-15.5,25.2c0.2,10.4,6.7,20.4,16,25.1c9.3,4.7,21,4,29.9-1.5
	c4.6-2.9,8.6-7.2,9.9-12.5c1.3-5.6-0.7-11.6-4-16.3s-7.9-8.4-12.4-12"/>
<path fill="none" stroke="#E74C3C" stroke-width="4" stroke-miterlimit="10" d="M268.3,171.9c6.2-9,14-16.9,22.9-23.2l-0.3,30.4"/>
<path fill="none" stroke="#E74C3C" stroke-width="4" stroke-miterlimit="10" d="M289.2,167.6c-3.8-2.2-7.6-4.5-11.4-6.7"/>
</svg>
