<svg version="1.1" id="personalized" xmlns="http://www.w3.org/2000/svg" xmlns:xlink="http://www.w3.org/1999/xlink" x="0px"
	 y="0px" viewBox="0 0 388 388" enable-background="new 0 0 388 388" xml:space="preserve">
<circle fill="#2f80b9" cx="194" cy="194" r="194"/>
<g>
	<ellipse fill="#2B3D50" cx="119.7" cy="176.6" rx="19.8" ry="26.6"/>
	<path fill="#2B3D50" d="M150,245.7H90v-23.5c0-9.1,7.4-16.5,16.5-16.5h27.1c9.1,0,16.5,7.4,16.5,16.5V245.7z"/>
</g>
<g>
	<ellipse fill="#2B3D50" cx="47.4" cy="176.6" rx="19.8" ry="26.6"/>
	<path fill="#2B3D50" d="M77.5,245.7h-60v-23.5c0-9.1,7.4-16.5,16.5-16.5H61c9.1,0,16.5,7.4,16.5,16.5V245.7z"/>
</g>
<g>
	<ellipse fill="#2B3D50" cx="337.7" cy="176.6" rx="19.8" ry="26.6"/>
	<path fill="#2B3D50" d="M367.7,245.7h-60v-23.5c0-9.1,7.4-16.5,16.5-16.5h27.1c9.1,0,16.5,7.4,16.5,16.5V245.7z"/>
</g>
<g>
	<ellipse fill="#2B3D50" cx="265.1" cy="176.6" rx="19.8" ry="26.6"/>
	<path fill="#2B3D50" d="M295.2,245.7h-60v-23.5c0-9.1,7.4-16.5,16.5-16.5h27.1c9.1,0,16.5,7.4,16.5,16.5V245.7z"/>
</g>
<g>
	<ellipse fill="#E5997F" cx="192.6" cy="176.6" rx="19.8" ry="26.6"/>
	<path fill="#56CC72" d="M222.6,245.7h-60v-23.5c0-9.1,7.4-16.5,16.5-16.5h27.1c9.1,0,16.5,7.4,16.5,16.5V245.7z"/>
</g>
</svg>
